# xmcd
#
# Track frame offsets:
#	150
#	20552
#	32740
#	41607
#	52147
#	66652
#	78792
#	88700
#	99697
#	110715
#	118882
#	128665
#	138562
#	151132
#	159752
#	169432
#	191434
#	201510
#	209140
#	218050
#	230059
#	243334
#	255985
#	267927
#	284487
#	298965
#
# Disc length: 4260 seconds
#
# Revision: 0
# Processed by: cddbd v1.5.2PL0 Copyright (c) Steve Scherf et al.
# Submitted via: dBpowerAMP V4.0
#
DISCID=9710a21a
DTITLE=Various Artist - Boriqua Dance Party
DYEAR=1996
DGENRE=Dance
TTITLE0=El Viejo San Juan Mix - Boriqua Anthem 2 - CC Music Factory Feat Wepa Man
TTITLE1=El Viejo San Juan Mix - Magic Carpet Ride - BucketHeads
TTITLE2=El Viejo San Juan Mix - Si lo Quieres Ven Y Cojelo - White Label
TTITLE3=El Viejo San Juan Mix - La Casa Latina 96 - Gino Latino
TTITLE4=El Viejo San Juan Mix - Heavy Duty - White Label
TTITLE5=El Viejo San Juan Mix - Agua - White Label
TTITLE6=El Viejo San Juan Mix - Todos los Latinos - White Label
TTITLE7=El Viejo San Juan Mix Toma 96 - White Label
TTITLE8=El Viejo San Juan Mix - Baila - White Label
TTITLE9=El Viejo San Juan Mix - Latinos in the House - White Label
TTITLE10=El Viejo San Juan Mix - La Fiesta - White Label
TTITLE11=El Viejo San Juan Mix - El Sorrullo 96 - White Label
TTITLE12=El Viejo San Juan Mix - El loco - Quinito Mendez
TTITLE13=Isla Verde Mix - Esa Nena Linda - Artie the one man Party
TTITLE14=Isla Verde Mix - Take a Toke - Outhere brothers
TTITLE15=Isla Verde Mix - Boriqua Anthem - CC Music Factory
TTITLE16=Isla Verde Mix - Viciosa - Valeria Vix
TTITLE17=Isla Verde Mix - Baila (Soy Boriqua) - White Label
TTITLE18=Isla Verde Mix - Mami - White Label
TTITLE19=Isla Verde Mix - Bomba - White Label
TTITLE20=Isla Verde Mix - Que Ritmo - White Label
TTITLE21=Isla Verde Mix - I like it like that - White Label
TTITLE22=Isla Verde Mix - A mover la Colita - Artie the one man party
TTITLE23=Isla Verde Mix - La Fiesta - Morbo Latino
TTITLE24=Isla Verde Mix - Move Dat - White Label
TTITLE25=Boriqua's Radio Edit Mix
EXTD=Boriqua Dance Party\nPuerto Rico's Hotest Latin House Mix
EXTT0=
EXTT1=
EXTT2=
EXTT3=
EXTT4=
EXTT5=
EXTT6=
EXTT7=
EXTT8=
EXTT9=
EXTT10=
EXTT11=
EXTT12=
EXTT13=
EXTT14=
EXTT15=
EXTT16=
EXTT17=
EXTT18=
EXTT19=
EXTT20=
EXTT21=
EXTT22=
EXTT23=
EXTT24=
EXTT25=
PLAYORDER=
